<svg xmlns="http://www.w3.org/2000/svg" xmlns:xlink="http://www.w3.org/1999/xlink" width="500" zoomAndPan="magnify" viewBox="0 0 375 374.999991" height="500" preserveAspectRatio="xMidYMid meet" version="1.0"><defs><g/><clipPath id="d4869d7391"><path d="M 37.5 37.5 L 338 37.5 L 338 337.390625 L 37.5 337.390625 Z M 37.5 37.5 " clip-rule="nonzero"/></clipPath><clipPath id="1e90f35346"><path d="M 187.5 37.5 C 104.65625 37.5 37.5 104.632812 37.5 187.445312 C 37.5 270.257812 104.65625 337.390625 187.5 337.390625 C 270.34375 337.390625 337.5 270.257812 337.5 187.445312 C 337.5 104.632812 270.34375 37.5 187.5 37.5 Z M 187.5 37.5 " clip-rule="nonzero"/></clipPath><clipPath id="002c959243"><path d="M 37.503906 37.5 L 337.5 37.5 L 337.5 337.5 L 37.503906 337.5 Z M 37.503906 37.5 " clip-rule="nonzero"/></clipPath><clipPath id="80afd78705"><path d="M 187.5 37.5 C 104.660156 37.5 37.503906 104.632812 37.503906 187.441406 C 37.503906 270.25 104.660156 337.382812 187.5 337.382812 C 270.339844 337.382812 337.496094 270.25 337.496094 187.441406 C 337.496094 104.632812 270.339844 37.5 187.5 37.5 Z M 187.5 37.5 " clip-rule="nonzero"/></clipPath><clipPath id="92a14fe438"><path d="M 74 63 L 299 63 L 299 257.957031 L 74 257.957031 Z M 74 63 " clip-rule="nonzero"/></clipPath><clipPath id="7e0130a1d1"><path d="M 87 107 L 298 107 L 298 257.957031 L 87 257.957031 Z M 87 107 " clip-rule="nonzero"/></clipPath><clipPath id="0c40818a0e"><path d="M 96 64 L 283 64 L 283 257.957031 L 96 257.957031 Z M 96 64 " clip-rule="nonzero"/></clipPath><clipPath id="796d5e02df"><path d="M 85 66 L 284 66 L 284 257.957031 L 85 257.957031 Z M 85 66 " clip-rule="nonzero"/></clipPath><clipPath id="f34181c6c7"><path d="M 73 63 L 302 63 L 302 257.957031 L 73 257.957031 Z M 73 63 " clip-rule="nonzero"/></clipPath></defs><rect x="-37.5" width="450" fill="#ffffff" y="-37.499999" height="449.999989" fill-opacity="1"/><rect x="-37.5" width="450" fill="#ffffff" y="-37.499999" height="449.999989" fill-opacity="1"/><g clip-path="url(#d4869d7391)"><g clip-path="url(#1e90f35346)"><path fill="#fff5ec" d="M 37.5 37.5 L 337.390625 37.5 L 337.390625 337.390625 L 37.5 337.390625 Z M 37.5 37.5 " fill-opacity="1" fill-rule="nonzero"/></g></g><g clip-path="url(#002c959243)"><g clip-path="url(#80afd78705)"><path stroke-linecap="butt" transform="matrix(0.75, 0, 0, 0.75, 37.504525, 37.499998)" fill="none" stroke-linejoin="miter" d="M 199.99398 0.00000328333 C 89.540848 0.00000328333 -0.000824783 89.510426 -0.000824783 199.921891 C -0.000824783 310.333357 89.540848 399.84378 199.99398 399.84378 C 310.447112 399.84378 399.988785 310.333357 399.988785 199.921891 C 399.988785 89.510426 310.447112 0.00000328333 199.99398 0.00000328333 Z M 199.99398 0.00000328333 " stroke="#000000" stroke-width="4" stroke-opacity="1" stroke-miterlimit="4"/></g></g><g clip-path="url(#92a14fe438)"><path fill="#ffffff" d="M 273.582031 257.171875 L 271.65625 256.898438 C 271.65625 256.898438 273.71875 253.730469 279.949219 239.921875 C 286.183594 226.113281 280.179688 222.304688 274.589844 224.230469 C 278.210938 216.25 267.117188 216.617188 265.054688 218.632812 C 263.085938 212.257812 264.6875 212.164062 255.84375 212.992188 C 247 213.769531 208.453125 256.851562 208.453125 256.851562 C 208.453125 256.851562 121.652344 257.128906 88.5625 257.128906 C 80.632812 247.585938 72.703125 233.132812 75.5 226.25 C 78.339844 219.414062 86.726562 216.523438 86.726562 216.523438 C 86.726562 216.523438 85.398438 215.605469 83.566406 202.253906 C 83.105469 158.074219 103.179688 144.261719 121.925781 128.570312 C 127.699219 99.941406 149.46875 69.9375 161.753906 63.054688 C 177.792969 74.664062 197.914062 108.933594 197.914062 108.933594 L 223.808594 115.726562 C 223.808594 115.726562 254.925781 81.40625 268.8125 74.523438 C 281.738281 86.683594 286.183594 105.171875 288.15625 116.597656 C 292.691406 143.300781 288.15625 157.707031 288.15625 157.707031 C 288.15625 157.707031 298.789062 174.773438 298.789062 199.042969 C 298.789062 212.578125 297.136719 226.25 289.164062 239.507812 C 285.222656 246.070312 273.582031 257.171875 273.582031 257.171875 Z M 226.742188 155 C 222.433594 153.53125 213.542969 167.707031 221.5625 165.734375 C 229.628906 163.761719 231.050781 156.46875 226.742188 155 Z M 226.742188 155 " fill-opacity="1" fill-rule="nonzero"/></g><g clip-path="url(#7e0130a1d1)"><path fill="#ef5454" d="M 283.34375 107.375 C 283.34375 107.375 291.546875 143.527344 271.519531 167.570312 C 279.265625 178.167969 276.46875 222.257812 217.851562 236.527344 C 168.398438 250.613281 120.964844 241.4375 94.566406 216.660156 C 98.507812 225.609375 104.921875 238.179688 113.171875 246.160156 C 103.683594 240.609375 91.675781 229.09375 87.09375 216.15625 C 88.058594 227.855469 95.207031 245.519531 112.300781 257.035156 C 138.929688 257.082031 254.972656 257.035156 254.972656 257.035156 C 254.972656 257.035156 288.246094 240.792969 296.679688 211.84375 C 302.085938 178.902344 288.199219 159.3125 288.199219 159.3125 C 288.199219 159.3125 291.546875 139.582031 290.445312 128.847656 C 289.164062 117.332031 283.34375 107.375 283.34375 107.375 Z M 249.839844 242.078125 C 245.53125 244.234375 245.945312 237.445312 249.839844 236.617188 C 253.734375 235.839844 254.148438 240.015625 249.839844 242.078125 Z M 249.839844 242.078125 " fill-opacity="0.3" fill-rule="nonzero"/></g><path fill="#2b0806" d="M 118.671875 94.4375 C 105.105469 95.261719 101.621094 112.515625 101.164062 115.359375 C 101.164062 115.632812 101.164062 115.769531 101.164062 115.769531 C 101.164062 115.769531 101.164062 115.679688 101.117188 115.585938 C 101.117188 115.726562 101.074219 115.769531 101.074219 115.769531 C 101.074219 115.769531 101.074219 115.632812 101.074219 115.359375 C 100.613281 112.515625 97.316406 95.355469 83.566406 94.4375 C 97.175781 93.613281 100.660156 76.359375 101.117188 73.515625 C 101.117188 73.242188 101.117188 73.101562 101.117188 73.101562 C 101.117188 73.101562 101.117188 73.195312 101.164062 73.332031 C 101.164062 73.195312 101.210938 73.101562 101.210938 73.101562 C 101.210938 73.101562 101.210938 73.242188 101.210938 73.515625 C 101.621094 76.359375 104.921875 93.519531 118.671875 94.4375 Z M 85.765625 112.191406 C 85.765625 112.054688 85.765625 112.007812 85.765625 112.007812 C 85.765625 112.007812 85.765625 112.054688 85.765625 112.101562 C 85.765625 112.054688 85.765625 112.007812 85.765625 112.007812 C 85.765625 112.007812 85.765625 112.101562 85.765625 112.191406 C 85.492188 113.570312 83.792969 122.148438 77.058594 122.5625 C 83.839844 123.019531 85.492188 131.507812 85.71875 132.929688 C 85.71875 133.066406 85.71875 133.113281 85.71875 133.113281 C 85.71875 133.113281 85.71875 133.066406 85.71875 133.023438 C 85.71875 133.066406 85.71875 133.113281 85.71875 133.113281 C 85.71875 133.113281 85.71875 133.023438 85.71875 132.929688 C 85.949219 131.554688 87.691406 122.972656 94.382812 122.5625 C 87.644531 122.148438 86.039062 113.613281 85.765625 112.191406 Z M 85.765625 112.191406 " fill-opacity="1" fill-rule="nonzero"/><g clip-path="url(#0c40818a0e)"><path fill="#efb07d" d="M 121.835938 128.664062 Z M 121.835938 128.617188 C 121.878906 128.617188 121.878906 128.617188 121.835938 128.617188 C 121.878906 128.617188 121.878906 128.617188 121.835938 128.617188 Z M 275.460938 148.253906 C 286.230469 128.480469 265.742188 87.96875 265.742188 87.96875 C 259.96875 94.574219 253.828125 120.085938 252.910156 126.046875 C 260.703125 128.527344 271.792969 135.546875 275.460938 148.253906 Z M 121.878906 128.617188 C 121.878906 128.617188 121.925781 128.570312 121.878906 128.617188 C 121.925781 128.570312 121.878906 128.617188 121.878906 128.617188 Z M 197.914062 108.980469 C 197.914062 108.980469 176.464844 76.40625 161.386719 64.84375 C 155.015625 68.789062 149.515625 73.746094 144.382812 81.40625 C 147.773438 77.324219 151.53125 73.976562 155.519531 72 C 155.519531 72 137.507812 91.820312 130.3125 121.324219 C 135.398438 120.773438 147.773438 121.734375 147.773438 121.734375 C 147.773438 121.734375 129.671875 122.609375 115.328125 136.507812 C 109.414062 139.171875 104.832031 141.738281 96.992188 152.660156 C 94.472656 160.503906 119.222656 196.015625 167.984375 176.242188 C 214.320312 157.429688 201.582031 109.992188 201.582031 109.992188 Z M 280.089844 223.589844 C 277.613281 223.128906 274.636719 224.277344 274.636719 224.277344 C 274.636719 224.277344 276.054688 218.359375 271.65625 217.441406 C 267.257812 216.523438 263.269531 220.101562 263.269531 220.101562 C 263.269531 220.101562 266.246094 213.175781 258.960938 211.9375 C 248.742188 210.285156 208.273438 257.128906 208.273438 257.128906 L 273.582031 257.128906 C 273.582031 257.171875 287.558594 228.589844 280.089844 223.589844 Z M 280.089844 223.589844 " fill-opacity="1" fill-rule="nonzero"/></g><path fill="#fcc85e" d="M 85.765625 118.019531 C 85.765625 117.972656 85.765625 117.925781 85.765625 117.925781 C 85.765625 117.925781 85.765625 117.925781 85.765625 118.019531 C 85.765625 117.925781 85.765625 117.925781 85.765625 117.925781 C 85.765625 117.925781 85.765625 117.972656 85.765625 118.019531 C 85.628906 118.617188 84.894531 122.378906 81.914062 122.5625 C 84.941406 122.789062 85.628906 126.507812 85.71875 127.105469 C 85.71875 127.148438 85.71875 127.195312 85.71875 127.195312 C 85.71875 127.195312 85.71875 127.195312 85.71875 127.148438 C 85.71875 127.195312 85.71875 127.195312 85.71875 127.195312 C 85.71875 127.195312 85.71875 127.148438 85.71875 127.105469 C 85.8125 126.507812 86.589844 122.746094 89.523438 122.5625 C 86.589844 122.332031 85.855469 118.660156 85.765625 118.019531 Z M 101.164062 107.285156 C 101.164062 107.285156 101.164062 107.238281 101.164062 107.144531 C 101.164062 107.238281 101.164062 107.285156 101.164062 107.285156 C 101.210938 107.285156 101.210938 107.191406 101.210938 107.054688 C 101.484375 105.355469 103.546875 94.988281 111.75 94.4375 C 103.457031 93.886719 101.53125 83.5625 101.210938 81.820312 C 101.210938 81.683594 101.210938 81.589844 101.210938 81.589844 C 101.210938 81.589844 101.210938 81.636719 101.210938 81.726562 C 101.210938 81.636719 101.210938 81.589844 101.210938 81.589844 C 101.210938 81.589844 101.210938 81.683594 101.210938 81.820312 C 100.933594 83.519531 98.875 93.886719 90.667969 94.4375 C 98.964844 94.988281 100.890625 105.3125 101.210938 107.054688 C 101.164062 107.191406 101.164062 107.285156 101.164062 107.285156 Z M 101.164062 107.285156 " fill-opacity="1" fill-rule="nonzero"/><g clip-path="url(#796d5e02df)"><path fill="#ef5454" d="M 197.59375 110.542969 C 191.453125 109.484375 179.304688 107.695312 168.261719 111.824219 C 172.707031 97.742188 161.660156 66.265625 161.660156 66.265625 C 179.03125 73.148438 200.34375 108.246094 197.59375 110.542969 Z M 276.605469 223.820312 C 276.605469 223.820312 279.628906 227.214844 272.113281 239.507812 C 264.644531 251.804688 259.601562 257.171875 259.601562 257.171875 L 271.472656 257.171875 C 271.472656 257.171875 284.582031 234.417969 283.25 226.25 C 281.875 218.128906 276.605469 223.820312 276.605469 223.820312 Z M 107.902344 93.335938 C 104.464844 93.015625 100.109375 94.757812 100.980469 106.136719 C 101.074219 106.550781 101.117188 106.824219 101.164062 107.007812 C 101.164062 107.144531 101.164062 107.238281 101.164062 107.238281 C 101.164062 107.238281 101.164062 107.191406 101.164062 107.101562 C 101.164062 107.191406 101.164062 107.238281 101.164062 107.238281 C 101.164062 107.238281 101.164062 107.144531 101.164062 107.007812 C 101.441406 105.3125 103.503906 94.941406 111.707031 94.390625 C 110.238281 94.34375 109 93.976562 107.902344 93.335938 Z M 85.582031 126.277344 C 85.671875 126.691406 85.765625 126.964844 85.765625 127.105469 C 85.765625 127.148438 85.765625 127.195312 85.765625 127.195312 C 85.765625 127.195312 85.765625 127.195312 85.765625 127.148438 C 85.765625 127.195312 85.765625 127.195312 85.765625 127.195312 C 85.765625 127.195312 85.765625 127.148438 85.765625 127.105469 C 85.855469 126.507812 86.636719 122.746094 89.570312 122.5625 C 89.109375 122.515625 88.746094 122.425781 88.378906 122.242188 C 87.140625 122.101562 85.308594 122.515625 85.582031 126.277344 Z M 85.582031 126.277344 " fill-opacity="0.3" fill-rule="nonzero"/></g><g clip-path="url(#f34181c6c7)"><path fill="#2b0806" d="M 196.539062 178.261719 C 196.90625 185.785156 185.953125 190.464844 181.183594 180.003906 C 170.414062 190.785156 166.199219 178.261719 166.199219 178.261719 C 146.445312 192.023438 145.621094 226.25 178.480469 226.25 C 213.726562 226.25 209.96875 188.351562 196.539062 178.261719 Z M 249.839844 127.289062 C 265.46875 132.746094 275.460938 148.300781 275.460938 148.300781 C 275.460938 148.300781 272.984375 138.113281 266.523438 132.65625 C 260.335938 127.472656 254.699219 124.121094 254.699219 124.121094 C 254.699219 124.121094 262.214844 94.117188 265.699219 87.96875 C 265.742188 87.96875 255.84375 97.695312 249.839844 127.289062 Z M 284.535156 230.5625 C 285.863281 219.871094 278.714844 220.332031 276.375 222.351562 C 278.4375 217.027344 270.144531 213.175781 265.789062 217.671875 C 266.707031 209.960938 259.144531 205.695312 247.777344 214.824219 C 237.511719 223.128906 217.574219 243.363281 205.796875 257.171875 C 209.875 257.171875 211.433594 257.171875 211.433594 257.171875 C 211.433594 257.171875 229.859375 236.757812 240.308594 226.296875 C 250.757812 215.835938 257.265625 212.851562 261.207031 215.332031 C 263.679688 216.9375 263.316406 222.304688 263.316406 222.304688 C 263.316406 222.304688 268.859375 217.53125 272.34375 219.597656 C 275.183594 221.25 273.71875 224.460938 272.390625 227.398438 C 276.925781 222.855469 282.425781 224.734375 281.1875 231.527344 C 280.273438 236.847656 273.304688 250.84375 270.144531 257.082031 L 276.054688 257.082031 C 276.054688 257.082031 285.3125 249.511719 289.210938 242.355469 C 289.210938 235.195312 288.246094 236.480469 288.246094 236.480469 C 288.246094 236.480469 285.40625 240.976562 279.035156 247.953125 C 280.132812 246.117188 283.9375 235.242188 284.535156 230.5625 Z M 214.597656 153.667969 C 205.339844 162.9375 205.339844 178.078125 214.597656 187.390625 C 223.855469 196.65625 238.976562 196.65625 248.28125 187.390625 C 257.539062 178.121094 257.539062 162.980469 248.28125 153.667969 C 239.023438 144.355469 223.945312 144.355469 214.597656 153.667969 Z M 122.84375 138.113281 C 113.585938 147.382812 113.585938 162.523438 122.84375 171.835938 C 132.101562 181.105469 147.226562 181.105469 156.527344 171.835938 C 165.832031 162.570312 165.785156 147.429688 156.527344 138.113281 C 147.269531 128.800781 132.101562 128.847656 122.84375 138.113281 Z M 290.261719 158.898438 C 300.023438 124.992188 278.578125 84.480469 278.578125 84.480469 C 276.332031 79.9375 273.625 75.304688 270.328125 70.945312 C 266.246094 70.578125 244.707031 89.296875 222.800781 112.238281 C 222.800781 112.238281 212.992188 108.933594 200.34375 108.246094 C 196.859375 100.449219 184.714844 80.628906 161.800781 63.101562 C 156.988281 63.789062 132.238281 84.574219 121.332031 127.929688 C 100.429688 139.078125 76.414062 169.222656 82.785156 207.347656 C 83.246094 209.960938 84.253906 213.863281 84.984375 216.203125 L 83.015625 216.984375 C 83.015625 216.984375 67.019531 224.1875 76.828125 241.023438 C 86.636719 257.863281 87.644531 257.21875 87.644531 257.21875 L 91.953125 257.21875 C 91.953125 257.21875 79.53125 242.492188 77.835938 231.9375 C 76.597656 224.460938 82.648438 221.066406 85.71875 220.011719 C 100.980469 251.070312 129.855469 257.265625 129.855469 257.265625 L 141.3125 257.265625 C 141.3125 257.265625 93.328125 246.207031 86.820312 206.15625 C 84.574219 192.300781 87.1875 179.039062 91.171875 168.167969 C 91.171875 168.210938 91.171875 168.257812 91.171875 168.257812 C 105.746094 134.445312 136.914062 123.9375 136.914062 123.9375 C 132.695312 123.984375 128.617188 124.765625 124.90625 126.140625 C 130.359375 106.457031 142.273438 83.011719 161.707031 66.3125 C 174.355469 75.808594 190.855469 99.804688 195.714844 108.15625 C 191.726562 108.15625 187.464844 108.476562 183.246094 109.257812 C 183.476562 110.402344 212.578125 113.796875 223.808594 115.863281 C 232.011719 107.328125 254.746094 84.574219 268.8125 74.664062 C 276.878906 86.132812 281.921875 103.75 284.902344 114.898438 C 285.816406 118.984375 286.460938 122.789062 286.964844 126.371094 C 287.925781 136.050781 287.421875 147.335938 285.726562 159.496094 C 287.007812 160.824219 288.292969 163.074219 288.886719 164.175781 C 288.933594 164.265625 288.980469 164.3125 288.980469 164.402344 C 291.636719 169.589844 295.121094 179.5 296.128906 196.703125 C 298.054688 229.460938 283.386719 243.273438 283.386719 243.273438 C 283.386719 243.273438 284.808594 249.234375 281.097656 252.816406 C 307.769531 226.25 304.515625 182.25 290.261719 158.898438 Z M 290.261719 158.898438 " fill-opacity="1" fill-rule="nonzero"/></g><path fill="#ef5454" d="M 178.757812 221.480469 C 167.984375 221.480469 161.523438 217.121094 158.589844 211.109375 C 176.511719 190.921875 199.746094 197.484375 201.488281 197.941406 C 202.496094 209.273438 197.226562 221.480469 178.757812 221.480469 Z M 178.757812 221.480469 C 167.984375 221.480469 161.523438 217.121094 158.589844 211.109375 C 176.511719 190.921875 199.746094 197.484375 201.488281 197.941406 C 202.496094 209.273438 197.226562 221.480469 178.757812 221.480469 Z M 178.757812 221.480469 " fill-opacity="1" fill-rule="nonzero"/><path fill="#ffffff" d="M 126.28125 145.59375 C 125.132812 141.417969 137.644531 134.214844 140.625 138.207031 C 145.804688 145.089844 127.746094 151.007812 126.28125 145.59375 Z M 156.34375 150.226562 C 155.246094 144.582031 147.730469 143.621094 141.816406 149.492188 C 135.90625 155.320312 127.152344 153.027344 124.21875 156.285156 C 121.191406 159.539062 126.371094 173.304688 138.65625 173.304688 C 148.964844 173.304688 159.371094 166.148438 156.34375 150.226562 Z M 218.078125 160.964844 C 216.933594 156.789062 229.445312 149.585938 232.425781 153.578125 C 237.601562 160.414062 219.546875 166.332031 218.078125 160.964844 Z M 248.144531 165.597656 C 247.042969 159.953125 239.527344 158.988281 233.617188 164.863281 C 227.703125 170.691406 218.949219 168.394531 216.015625 171.652344 C 212.992188 174.910156 218.171875 188.675781 230.453125 188.675781 C 240.71875 188.675781 251.167969 181.515625 248.144531 165.597656 Z M 248.144531 165.597656 " fill-opacity="1" fill-rule="nonzero"/><path stroke-linecap="butt" transform="matrix(0.586804, 0.467077, -0.467077, 0.586804, 115.10068, 251.176887)" fill="none" stroke-linejoin="miter" d="M 21.975422 54.000677 C 20.730096 54.000051 19.70357 53.672159 18.903993 53.010517 C 18.10766 52.352949 17.563896 51.527628 17.275945 50.538629 C 16.992901 49.539067 16.815058 48.429141 16.743248 47.201532 C 16.675513 45.97068 16.650108 44.726104 16.667035 43.467804 C 16.683962 42.209504 16.675443 41.044684 16.637403 39.976586 C 16.606682 38.90932 16.496544 38.051717 16.313476 37.411928 C 16.141802 36.769726 15.807465 36.450047 15.314541 36.449646 C 14.599565 36.446259 14.098583 36.745172 13.816502 37.335825 C 13.527104 37.925646 13.386079 38.710237 13.386109 39.688766 C 13.382896 40.663221 13.444554 41.719176 13.567841 42.852556 C 13.697615 43.994086 13.829052 45.120979 13.968639 46.241385 C 14.11962 47.359379 14.192836 48.346223 14.18912 49.194598 C 14.194498 50.974347 13.788021 52.203218 12.981084 52.878799 C 12.181465 53.555212 11.089841 53.898221 9.69648 53.895603 C 8.317757 53.894648 7.104765 53.315768 6.05343 52.162207 C 5.002094 51.008646 4.133797 49.516345 3.437143 47.687716 C 2.741321 45.851768 2.217481 43.872271 1.859968 41.733756 C 1.505699 39.599315 1.328493 37.57024 1.327518 35.65385 C 1.326781 33.311234 1.585356 31.035143 2.095094 28.832064 C 2.616226 26.626573 3.40358 24.655185 4.454742 22.906508 C 5.505073 21.165149 6.811565 19.779066 8.373388 18.755579 C 9.932799 17.720698 11.785385 17.20468 13.91651 17.205861 C 15.592135 17.203481 16.981349 17.568869 18.084151 18.302024 C 19.187784 19.027862 20.062384 19.942659 20.715271 21.047248 C 21.372232 22.148593 21.830676 23.268157 22.083286 24.40511 C 22.3236 23.268558 22.769667 22.147967 23.410093 21.04575 C 24.05052 19.943534 24.925562 19.027352 26.027903 18.296373 C 27.129412 17.572713 28.494402 17.205161 30.125284 17.20511 C 32.834744 17.205276 35.141125 18.045512 37.045259 19.7185 C 38.942906 21.383339 40.38998 23.686406 41.379994 26.619551 C 42.377326 29.553528 42.87651 32.957242 42.874301 36.826616 C 42.875521 38.642958 42.680474 40.555612 42.292401 42.568653 C 41.897841 44.573545 41.337694 46.437309 40.611127 48.167264 C 39.882148 49.885825 39.000218 51.286781 37.965336 52.370132 C 36.941016 53.458389 35.767562 53.999668 34.451463 54.002121 C 33.024753 53.999421 31.908822 53.64284 31.092278 52.934791 C 30.276565 52.219424 29.865604 50.975525 29.867545 49.196607 C 29.868018 48.344158 29.935518 47.358474 30.077364 46.240388 C 30.223286 45.119058 30.365964 43.993653 30.506229 42.856855 C 30.643251 41.715982 30.714991 40.660356 30.714129 39.689145 C 30.714099 38.710615 30.581009 37.924536 30.310785 37.33415 C 30.047879 36.744595 29.566257 36.448956 28.854523 36.449643 C 28.354281 36.448411 28.010234 36.76886 27.810988 37.413401 C 27.619893 38.051456 27.493341 38.904408 27.433826 39.950304 C 27.380799 41.00435 27.353557 42.157694 27.355342 43.414413 C 27.353052 44.674376 27.329638 45.924526 27.276118 47.178668 C 27.224261 48.418174 27.056384 49.537009 26.768412 50.538418 C 26.52277 51.526103 25.992031 52.347965 25.168045 53.010489 C 24.352208 53.666527 23.287446 54.001468 21.975422 54.000677 Z M 21.975422 54.000677 " stroke="#2a170c" stroke-width="4.266656" stroke-opacity="1" stroke-miterlimit="4"/><path stroke-linecap="butt" transform="matrix(0.684693, 0.306097, -0.306097, 0.684693, 137.574663, 269.060987)" fill="none" stroke-linejoin="miter" d="M 19.569817 53.998195 C 18.110258 54.000318 16.552638 53.897947 14.894831 53.686327 C 13.246535 53.470456 11.619943 53.022382 10.024061 52.34949 C 8.430809 51.669717 6.970133 50.673945 5.648913 49.364804 C 4.339832 48.04453 3.28947 46.294814 2.498329 44.10402 C 1.720949 41.918484 1.325298 39.208577 1.325135 35.979557 C 1.327435 32.424245 1.931693 29.181745 3.139532 26.268446 C 4.352125 23.353022 6.185249 21.021658 8.633644 19.288114 C 11.089422 17.545564 14.167409 16.671579 17.864973 16.67304 C 20.527611 16.669352 22.702126 16.900999 24.386391 17.363225 C 26.080166 17.821201 27.406197 18.426462 28.37187 19.170004 C 29.332788 19.915672 30.003551 20.73971 30.375152 21.634734 C 30.747256 22.518122 30.934818 23.409846 30.933586 24.300394 C 30.935598 25.223722 30.69215 26.108452 30.204864 26.970974 C 29.729717 27.822364 28.973366 28.491392 27.940061 28.987569 C 26.952681 29.446099 25.920328 29.65089 24.854635 29.602445 C 23.786816 29.549245 22.827463 29.521721 21.978702 29.524629 C 20.129919 29.523898 18.679534 29.852817 17.627545 30.511384 C 16.578185 31.163071 15.840013 32.166279 15.417783 33.518882 C 15.978795 33.484872 16.611744 33.458638 17.304996 33.439676 C 18.000373 33.425469 18.71902 33.412268 19.467316 33.414339 C 20.92212 33.414342 22.315112 33.441978 23.644165 33.492493 C 24.980099 33.545637 25.918419 33.628205 26.459125 33.740196 C 27.698172 33.984987 28.633135 34.468413 29.268264 35.199983 C 29.912904 35.927303 30.2336 36.759507 30.230857 37.684961 C 30.232254 38.568629 29.9294 39.37152 29.322796 40.081999 C 28.723074 40.795108 27.747945 41.293802 26.404291 41.580711 C 25.90319 41.684924 24.94406 41.759993 23.540664 41.811174 C 22.144148 41.864985 20.678827 41.892505 19.137821 41.891103 C 18.538659 41.890823 17.953761 41.884165 17.381002 41.866375 C 16.819879 41.849089 16.307422 41.838572 15.845758 41.839578 C 16.338914 42.942695 17.089613 43.805163 18.099981 44.431737 C 19.110853 45.046676 20.424075 45.355293 22.032767 45.35496 C 22.627175 45.357366 23.494844 45.29466 24.633146 45.173722 C 25.771448 45.052784 26.872158 45.154036 27.937907 45.470596 C 29.651931 45.99939 30.507907 47.122869 30.506338 48.829399 C 30.50835 49.752727 30.191342 50.613291 29.566447 51.42323 C 28.95369 52.222037 27.849287 52.852691 26.262745 53.31094 C 24.683085 53.771819 22.4514 53.999319 19.569817 53.998195 Z M 19.569817 53.998195 " stroke="#2a170c" stroke-width="4.266656" stroke-opacity="1" stroke-miterlimit="4"/><path stroke-linecap="butt" transform="matrix(0.737239, 0.137761, -0.137761, 0.737239, 155.718304, 278.017071)" fill="none" stroke-linejoin="miter" d="M 19.516166 54.051712 C 17.069202 54.085075 14.761069 53.642126 12.591767 52.722863 C 10.420551 51.79336 8.495291 50.478796 6.821106 48.778212 C 5.156204 47.070595 3.840221 45.075242 2.875069 42.802394 C 1.920156 40.527632 1.404971 38.054135 1.329514 35.381904 C 1.292377 32.829676 1.734422 30.431638 2.656607 28.192909 C 3.582956 25.948104 4.882834 23.972603 6.551123 22.267364 C 8.224531 20.561168 10.161989 19.218913 12.369575 18.244763 C 14.576203 17.265492 16.954338 16.778724 19.518383 16.776467 C 21.975586 16.741191 24.284675 17.18926 26.444695 18.115556 C 28.613998 19.034819 30.533181 20.345221 32.200333 22.036522 C 33.871647 23.721747 35.20012 25.69887 36.181588 27.973968 C 37.163056 30.249066 37.672164 32.7184 37.703793 35.382925 C 37.774519 37.944772 37.33855 40.346973 36.391723 42.595605 C 35.453222 44.832085 34.146311 46.798302 32.470989 48.494259 C 30.803994 50.178062 28.859502 51.511035 26.636558 52.488055 C 24.418733 53.464119 22.041218 53.982563 19.516166 54.051712 Z M 19.675523 43.647504 C 21.244534 43.651032 22.62673 43.080143 23.812831 41.941869 C 25.005008 40.807759 25.579307 39.259257 25.543716 37.310768 C 25.542386 35.318786 24.959449 33.758692 23.787871 32.621203 C 22.61438 31.473474 21.246645 30.902487 19.673472 30.905035 C 18.109581 30.90055 16.7437 31.473689 15.569752 32.620288 C 14.399967 33.760812 13.812223 35.322422 13.812596 37.309284 C 13.811392 39.259351 14.402656 40.807292 15.574234 41.944782 C 16.745812 43.082271 18.112589 43.648139 19.675523 43.647504 Z M 19.675523 43.647504 " stroke="#2a170c" stroke-width="4.266656" stroke-opacity="1" stroke-miterlimit="4"/><path stroke-linecap="butt" transform="matrix(0.734911, -0.149687, 0.149687, 0.734911, 190.555451, 283.718888)" fill="none" stroke-linejoin="miter" d="M 21.976491 53.998381 C 20.727262 53.99907 19.704943 53.668592 18.903391 53.011012 C 18.107983 52.349367 17.5634 51.5262 17.275785 50.537446 C 16.990249 49.538484 16.812357 48.428566 16.743148 47.202588 C 16.674979 45.971506 16.646693 44.727286 16.664433 43.465865 C 16.681133 42.209547 16.674019 41.044054 16.641011 39.979592 C 16.603939 38.908986 16.496652 38.052636 16.313005 37.414605 C 16.141644 36.768446 15.807735 36.450618 15.313354 36.450912 C 14.601413 36.449416 14.099856 36.745904 13.814828 37.336313 C 13.5298 37.926721 13.386068 38.710682 13.383633 39.688196 C 13.387341 40.661646 13.443881 41.714956 13.567525 42.856347 C 13.697312 43.993673 13.829178 45.120793 13.968227 46.238745 C 14.117483 47.358777 14.19264 48.346779 14.189635 49.196611 C 14.194589 50.972921 13.789831 52.203351 12.982545 52.878736 C 12.180361 53.55516 11.090294 53.896553 9.698071 53.894694 C 8.32116 53.895953 7.104618 53.318621 6.05355 52.163735 C 5.002481 51.00885 4.131352 49.518546 3.436098 47.68668 C 2.740844 45.854814 2.219767 43.87239 1.862662 41.737329 C 1.505557 39.602268 1.328873 37.573055 1.326467 35.653751 C 1.330668 33.310572 1.585888 31.039782 2.094206 28.831173 C 2.617835 26.625683 3.402127 24.654004 4.454265 22.906969 C 5.505363 21.165037 6.808526 19.777416 8.371883 18.756393 C 9.932215 17.724123 11.781853 17.202577 13.917678 17.207066 C 15.592863 17.202776 16.98481 17.571333 18.085392 18.300451 C 19.185973 19.029568 20.063233 19.941756 20.715091 21.047222 C 21.373092 22.148623 21.830827 23.267703 22.083194 24.40342 C 22.325208 23.267408 22.765315 22.150482 23.409657 21.048579 C 24.054 19.946676 24.926493 19.02944 26.027136 18.296871 C 27.131844 17.570445 28.497785 17.205512 30.129022 17.208217 C 32.834835 17.20655 35.141363 18.043098 37.043503 19.716822 C 38.941579 21.384404 40.386967 23.682659 41.378628 26.61669 C 42.375393 29.551761 42.873062 32.953911 42.875701 36.829281 C 42.873378 38.641316 42.680716 40.552779 42.29157 42.567734 C 41.899399 44.571443 41.338148 46.439724 40.608855 48.167472 C 39.881641 49.885013 39.000275 51.289447 37.966835 52.370567 C 36.942563 53.458869 35.769049 54.001192 34.451394 53.998575 C 33.026471 54.000686 31.908225 53.645354 31.09155 52.931541 C 30.273837 52.222831 29.868646 50.976257 29.869835 49.195883 C 29.867736 48.345012 29.935572 47.359558 30.078446 46.24056 C 30.22132 45.121562 30.366272 43.992356 30.507161 42.857008 C 30.643986 41.715517 30.715128 40.661638 30.716524 39.689227 C 30.713856 38.710674 30.581808 37.923694 30.308095 37.336417 C 30.051771 36.742051 29.563528 36.451256 28.851586 36.44976 C 28.357206 36.450054 28.009795 36.772624 27.810394 37.412364 C 27.6212 38.054184 27.496655 38.900521 27.431656 39.950336 C 27.381967 41.00327 27.354396 42.156384 27.353007 43.41582 C 27.356721 44.676296 27.330853 45.925431 27.277388 47.179576 C 27.227042 48.41841 27.057611 49.537315 26.769096 50.536289 C 26.524527 51.528268 25.990471 52.349664 25.169952 53.011722 C 24.350473 53.668678 23.289042 53.999958 21.976491 53.998381 Z M 21.976491 53.998381 " stroke="#2a170c" stroke-width="4.266656" stroke-opacity="1" stroke-miterlimit="4"/><path stroke-linecap="butt" transform="matrix(0.674417, -0.328118, 0.328118, 0.674417, 218.697295, 277.98092)" fill="none" stroke-linejoin="miter" d="M 19.570056 53.99764 C 18.109559 53.999498 16.554761 53.897557 14.896296 53.687258 C 13.247071 53.469872 11.623296 53.021601 10.022691 52.34713 C 8.429049 51.670254 6.971744 50.677434 5.653054 49.363988 C 4.341327 48.048136 3.290369 46.291535 2.500309 44.10583 C 1.71721 41.91772 1.326782 39.208231 1.326745 35.982048 C 1.327731 32.420424 1.928578 29.185397 3.138525 26.269878 C 4.350752 23.349677 6.182071 21.026071 8.632359 19.287416 C 11.089608 17.546356 14.166576 16.674422 17.863262 16.671614 C 20.528057 16.670676 22.70386 16.900988 24.385989 17.360273 C 26.079763 17.819431 27.40708 18.424655 28.370218 19.17126 C 29.333356 19.917864 30.001431 20.73522 30.376846 21.630288 C 30.749857 22.518395 30.93654 23.408521 30.936895 24.300668 C 30.935224 25.220789 30.693301 26.110903 30.206445 26.968733 C 29.728829 27.819474 28.972106 28.493879 27.943237 28.989543 C 26.948927 29.449892 25.923864 29.652014 24.854125 29.600719 C 23.784386 29.549424 22.829076 29.52484 21.978828 29.522411 C 20.131624 29.521474 18.679345 29.851684 17.628953 30.510638 C 16.576156 31.16263 15.839297 32.165262 15.418376 33.518533 C 15.979386 33.484498 16.610395 33.461351 17.304316 33.439852 C 17.995958 33.423036 18.717979 33.415208 19.465696 33.41409 C 20.923915 33.416915 22.314792 33.439106 23.643137 33.494586 C 24.980723 33.542977 25.918056 33.62832 26.455012 33.738967 C 27.696897 33.984063 28.636244 34.470036 29.266094 35.19929 C 29.912272 35.930696 30.233386 36.758801 30.23412 37.685884 C 30.23207 38.571069 29.93091 39.368651 29.323678 40.081034 C 28.72113 40.795697 27.750489 41.29073 26.40492 41.580184 C 25.902894 41.683461 24.944037 41.761408 23.539994 41.8139 C 22.142912 41.863988 20.675705 41.891541 19.140651 41.891878 C 18.539642 41.889076 17.952557 41.881465 17.381675 41.864361 C 16.815476 41.849535 16.305226 41.838761 15.846368 41.841406 C 16.34279 42.940148 17.090609 43.807885 18.096662 44.430568 C 19.111955 45.046162 20.422065 45.353412 22.031676 45.354596 C 22.628001 45.355119 23.498504 45.292106 24.633944 45.172645 C 25.771662 45.0485 26.874564 45.150682 27.940245 45.472229 C 29.651106 46.003413 30.504107 47.119253 30.506338 48.82899 C 30.504667 49.749111 30.192619 50.616692 29.570069 51.420087 C 28.95448 52.221078 27.850165 52.848005 26.259529 53.307832 C 24.680538 53.767531 22.453836 53.998987 19.570056 53.99764 Z M 19.570056 53.99764 " stroke="#2a170c" stroke-width="4.266656" stroke-opacity="1" stroke-miterlimit="4"/><path stroke-linecap="butt" transform="matrix(0.57916, -0.476523, 0.476523, 0.57916, 237.217285, 269.83132)" fill="none" stroke-linejoin="miter" d="M 19.51643 54.051829 C 17.06656 54.086502 14.759086 53.644804 12.589987 52.723425 C 10.420175 51.794716 8.498043 50.483006 6.822878 48.780963 C 5.154332 47.070877 3.839461 45.078491 2.878266 42.803806 C 1.924402 40.528407 1.406079 38.051555 1.32803 35.383889 C 1.29071 32.83067 1.738517 30.433798 2.65679 28.194697 C 3.58499 25.94353 4.88438 23.970793 6.546915 22.269867 C 8.2234 20.560184 10.164927 19.216957 12.368185 18.244205 C 14.574752 17.267431 16.954416 16.777058 19.518529 16.775681 C 21.975731 16.740295 24.283917 17.189324 26.442376 18.115437 C 28.611475 19.036816 30.532894 20.341195 32.200015 22.036619 C 33.873042 23.716668 35.201862 25.700297 36.185051 27.972844 C 37.16493 30.249414 37.671188 32.716338 37.704537 35.38095 C 37.775916 37.941958 37.336153 40.345449 36.389268 42.594732 C 35.452311 44.831949 34.1489 46.801377 32.474298 48.492375 C 30.806315 50.17533 28.860054 51.507917 26.635516 52.490138 C 24.417595 53.464315 22.040782 53.984014 19.51643 54.051829 Z M 19.670729 43.65033 C 21.243206 43.649158 22.623392 43.078346 23.812001 41.945227 C 25.00392 40.808086 25.582416 39.260657 25.54418 37.306962 C 25.547079 35.319666 24.958449 33.756201 23.786333 32.623186 C 22.612791 31.475509 21.243447 30.901901 19.670971 30.903073 C 18.113156 30.90282 16.744323 31.476228 15.571802 32.622584 C 14.401877 33.757587 13.817475 35.320391 13.814575 37.307687 C 13.812134 39.261637 14.402648 40.806417 15.571455 41.943454 C 16.744284 43.0838 18.112915 43.650077 19.670729 43.65033 Z M 19.670729 43.65033 " stroke="#2a170c" stroke-width="4.266656" stroke-opacity="1" stroke-miterlimit="4"/><g fill="#efb07d" fill-opacity="1"><g transform="translate(89.878496, 282.864284)"><g><path d="M 12.890625 10.265625 C 12.160156 9.679688 11.710938 9.007812 11.546875 8.25 C 11.390625 7.488281 11.457031 6.75 11.75 6.03125 C 12.050781 5.320312 12.46875 4.585938 13 3.828125 C 13.53125 3.078125 14.09375 2.335938 14.6875 1.609375 C 15.289062 0.878906 15.832031 0.191406 16.3125 -0.453125 C 16.789062 -1.097656 17.125 -1.648438 17.3125 -2.109375 C 17.507812 -2.566406 17.460938 -2.910156 17.171875 -3.140625 C 16.753906 -3.472656 16.328125 -3.535156 15.890625 -3.328125 C 15.453125 -3.117188 15.003906 -2.726562 14.546875 -2.15625 C 14.085938 -1.582031 13.625 -0.929688 13.15625 -0.203125 C 12.695312 0.523438 12.25 1.25 11.8125 1.96875 C 11.382812 2.695312 10.96875 3.3125 10.5625 3.8125 C 9.738281 4.851562 8.929688 5.382812 8.140625 5.40625 C 7.359375 5.425781 6.5625 5.113281 5.75 4.46875 C 4.925781 3.820312 4.476562 2.910156 4.40625 1.734375 C 4.332031 0.566406 4.519531 -0.707031 4.96875 -2.09375 C 5.414062 -3.488281 6.03125 -4.894531 6.8125 -6.3125 C 7.601562 -7.738281 8.453125 -9.015625 9.359375 -10.140625 C 10.453125 -11.523438 11.660156 -12.742188 12.984375 -13.796875 C 14.316406 -14.847656 15.695312 -15.640625 17.125 -16.171875 C 18.5625 -16.703125 19.976562 -16.898438 21.375 -16.765625 C 22.78125 -16.640625 24.109375 -16.082031 25.359375 -15.09375 C 26.335938 -14.3125 26.976562 -13.445312 27.28125 -12.5 C 27.582031 -11.5625 27.671875 -10.613281 27.546875 -9.65625 C 27.421875 -8.707031 27.164062 -7.84375 26.78125 -7.0625 C 27.457031 -7.613281 28.238281 -8.0625 29.125 -8.40625 C 30.007812 -8.75 30.945312 -8.875 31.9375 -8.78125 C 32.9375 -8.695312 33.910156 -8.273438 34.859375 -7.515625 C 36.453125 -6.253906 37.414062 -4.6875 37.75 -2.8125 C 38.082031 -0.945312 37.851562 1.078125 37.0625 3.265625 C 36.28125 5.453125 34.984375 7.679688 33.171875 9.953125 C 32.328125 11.015625 31.320312 12.046875 30.15625 13.046875 C 28.988281 14.046875 27.785156 14.878906 26.546875 15.546875 C 25.316406 16.210938 24.144531 16.625 23.03125 16.78125 C 21.925781 16.9375 20.988281 16.707031 20.21875 16.09375 C 19.375 15.425781 18.878906 14.691406 18.734375 13.890625 C 18.597656 13.097656 18.941406 12.179688 19.765625 11.140625 C 20.171875 10.640625 20.675781 10.09375 21.28125 9.5 C 21.882812 8.90625 22.492188 8.304688 23.109375 7.703125 C 23.722656 7.109375 24.257812 6.523438 24.71875 5.953125 C 25.175781 5.378906 25.460938 4.851562 25.578125 4.375 C 25.691406 3.90625 25.539062 3.507812 25.125 3.1875 C 24.820312 2.945312 24.46875 2.96875 24.0625 3.25 C 23.65625 3.539062 23.1875 3.976562 22.65625 4.5625 C 22.132812 5.15625 21.578125 5.820312 20.984375 6.5625 C 20.398438 7.3125 19.800781 8.035156 19.1875 8.734375 C 18.582031 9.441406 17.957031 10.019531 17.3125 10.46875 C 16.707031 10.9375 16.007812 11.171875 15.21875 11.171875 C 14.4375 11.179688 13.660156 10.878906 12.890625 10.265625 Z M 12.890625 10.265625 "/></g></g></g><g fill="#efb07d" fill-opacity="1"><g transform="translate(121.045441, 306.034417)"><g><path d="M 13.40625 6 C 12.40625 5.550781 11.367188 5 10.296875 4.34375 C 9.234375 3.6875 8.253906 2.878906 7.359375 1.921875 C 6.472656 0.972656 5.78125 -0.144531 5.28125 -1.4375 C 4.789062 -2.738281 4.609375 -4.257812 4.734375 -6 C 4.867188 -7.738281 5.429688 -9.71875 6.421875 -11.9375 C 7.515625 -14.363281 8.921875 -16.390625 10.640625 -18.015625 C 12.359375 -19.648438 14.320312 -20.6875 16.53125 -21.125 C 18.75 -21.570312 21.125 -21.226562 23.65625 -20.09375 C 25.488281 -19.269531 26.910156 -18.441406 27.921875 -17.609375 C 28.929688 -16.773438 29.648438 -15.957031 30.078125 -15.15625 C 30.503906 -14.351562 30.710938 -13.585938 30.703125 -12.859375 C 30.691406 -12.140625 30.550781 -11.476562 30.28125 -10.875 C 30 -10.238281 29.5625 -9.695312 28.96875 -9.25 C 28.375 -8.8125 27.644531 -8.585938 26.78125 -8.578125 C 25.957031 -8.554688 25.191406 -8.726562 24.484375 -9.09375 C 23.773438 -9.46875 23.128906 -9.78125 22.546875 -10.03125 C 21.285156 -10.601562 20.191406 -10.820312 19.265625 -10.6875 C 18.347656 -10.550781 17.535156 -10.085938 16.828125 -9.296875 C 17.222656 -9.148438 17.660156 -8.972656 18.140625 -8.765625 C 18.617188 -8.566406 19.113281 -8.359375 19.625 -8.140625 C 20.625 -7.691406 21.570312 -7.242188 22.46875 -6.796875 C 23.363281 -6.359375 23.976562 -6.019531 24.3125 -5.78125 C 25.09375 -5.226562 25.59375 -4.601562 25.8125 -3.90625 C 26.03125 -3.207031 26 -2.539062 25.71875 -1.90625 C 25.4375 -1.289062 24.976562 -0.832031 24.34375 -0.53125 C 23.707031 -0.238281 22.882812 -0.203125 21.875 -0.421875 C 21.5 -0.515625 20.820312 -0.753906 19.84375 -1.140625 C 18.863281 -1.523438 17.851562 -1.953125 16.8125 -2.421875 C 16.40625 -2.597656 16.007812 -2.78125 15.625 -2.96875 C 15.238281 -3.164062 14.882812 -3.335938 14.5625 -3.484375 C 14.570312 -2.566406 14.828125 -1.742188 15.328125 -1.015625 C 15.828125 -0.285156 16.625 0.320312 17.71875 0.8125 C 18.132812 1 18.753906 1.222656 19.578125 1.484375 C 20.398438 1.753906 21.117188 2.160156 21.734375 2.703125 C 22.742188 3.585938 22.988281 4.617188 22.46875 5.796875 C 22.1875 6.421875 21.707031 6.910156 21.03125 7.265625 C 20.363281 7.628906 19.414062 7.726562 18.1875 7.5625 C 16.96875 7.394531 15.375 6.875 13.40625 6 Z M 13.40625 6 "/></g></g></g><g fill="#efb07d" fill-opacity="1"><g transform="translate(148.279196, 317.827992)"><g><path d="M 14.375 2.734375 C 12.5625 2.421875 10.921875 1.769531 9.453125 0.78125 C 7.984375 -0.195312 6.75 -1.429688 5.75 -2.921875 C 4.75 -4.410156 4.050781 -6.054688 3.65625 -7.859375 C 3.269531 -9.660156 3.234375 -11.550781 3.546875 -13.53125 C 3.867188 -15.4375 4.523438 -17.144531 5.515625 -18.65625 C 6.515625 -20.175781 7.742188 -21.453125 9.203125 -22.484375 C 10.671875 -23.515625 12.285156 -24.238281 14.046875 -24.65625 C 15.804688 -25.082031 17.628906 -25.117188 19.515625 -24.765625 C 21.335938 -24.441406 22.984375 -23.789062 24.453125 -22.8125 C 25.921875 -21.832031 27.15625 -20.601562 28.15625 -19.125 C 29.164062 -17.65625 29.867188 -16.015625 30.265625 -14.203125 C 30.660156 -12.390625 30.691406 -10.5 30.359375 -8.53125 C 30.054688 -6.632812 29.398438 -4.925781 28.390625 -3.40625 C 27.390625 -1.882812 26.15625 -0.617188 24.6875 0.390625 C 23.226562 1.410156 21.613281 2.128906 19.84375 2.546875 C 18.082031 2.960938 16.257812 3.023438 14.375 2.734375 Z M 15.9375 -4.921875 C 17.082031 -4.710938 18.171875 -4.941406 19.203125 -5.609375 C 20.242188 -6.273438 20.882812 -7.332031 21.125 -8.78125 C 21.40625 -10.257812 21.191406 -11.492188 20.484375 -12.484375 C 19.773438 -13.484375 18.847656 -14.085938 17.703125 -14.296875 C 16.546875 -14.515625 15.457031 -14.285156 14.4375 -13.609375 C 13.414062 -12.941406 12.765625 -11.867188 12.484375 -10.390625 C 12.210938 -8.953125 12.429688 -7.734375 13.140625 -6.734375 C 13.847656 -5.742188 14.78125 -5.140625 15.9375 -4.921875 Z M 15.9375 -4.921875 "/></g></g></g><g fill="#efb07d" fill-opacity="1"><g transform="translate(181.693397, 322.835516)"><g/></g></g><g fill="#efb07d" fill-opacity="1"><g transform="translate(198.638547, 323.404065)"><g><path d="M 16.15625 -3.296875 C 15.238281 -3.109375 14.4375 -3.195312 13.75 -3.5625 C 13.0625 -3.925781 12.535156 -4.445312 12.171875 -5.125 C 11.828125 -5.8125 11.535156 -6.601562 11.296875 -7.5 C 11.054688 -8.394531 10.847656 -9.304688 10.671875 -10.234375 C 10.492188 -11.160156 10.3125 -12.015625 10.125 -12.796875 C 9.9375 -13.578125 9.726562 -14.1875 9.5 -14.625 C 9.28125 -15.070312 8.988281 -15.257812 8.625 -15.1875 C 8.101562 -15.082031 7.78125 -14.789062 7.65625 -14.3125 C 7.539062 -13.84375 7.554688 -13.25 7.703125 -12.53125 C 7.847656 -11.8125 8.050781 -11.039062 8.3125 -10.21875 C 8.570312 -9.40625 8.835938 -8.597656 9.109375 -7.796875 C 9.378906 -6.992188 9.578125 -6.273438 9.703125 -5.640625 C 9.972656 -4.335938 9.863281 -3.378906 9.375 -2.765625 C 8.894531 -2.148438 8.144531 -1.738281 7.125 -1.53125 C 6.101562 -1.320312 5.117188 -1.566406 4.171875 -2.265625 C 3.234375 -2.960938 2.367188 -3.925781 1.578125 -5.15625 C 0.796875 -6.394531 0.117188 -7.769531 -0.453125 -9.28125 C -1.035156 -10.800781 -1.472656 -12.269531 -1.765625 -13.6875 C -2.117188 -15.414062 -2.269531 -17.125 -2.21875 -18.8125 C -2.175781 -20.507812 -1.898438 -22.078125 -1.390625 -23.515625 C -0.878906 -24.953125 -0.125 -26.164062 0.875 -27.15625 C 1.882812 -28.144531 3.171875 -28.796875 4.734375 -29.109375 C 5.953125 -29.359375 7.019531 -29.300781 7.9375 -28.9375 C 8.863281 -28.570312 9.648438 -28.035156 10.296875 -27.328125 C 10.941406 -26.617188 11.441406 -25.863281 11.796875 -25.0625 C 11.804688 -25.9375 11.960938 -26.820312 12.265625 -27.71875 C 12.578125 -28.625 13.082031 -29.425781 13.78125 -30.125 C 14.488281 -30.820312 15.441406 -31.296875 16.640625 -31.546875 C 18.628906 -31.941406 20.441406 -31.671875 22.078125 -30.734375 C 23.722656 -29.796875 25.132812 -28.320312 26.3125 -26.3125 C 27.488281 -24.3125 28.367188 -21.882812 28.953125 -19.03125 C 29.210938 -17.707031 29.347656 -16.273438 29.359375 -14.734375 C 29.378906 -13.203125 29.25 -11.75 28.96875 -10.375 C 28.695312 -9 28.257812 -7.832031 27.65625 -6.875 C 27.0625 -5.925781 26.285156 -5.351562 25.328125 -5.15625 C 24.273438 -4.945312 23.394531 -5.039062 22.6875 -5.4375 C 21.988281 -5.832031 21.503906 -6.679688 21.234375 -7.984375 C 21.109375 -8.617188 21.015625 -9.359375 20.953125 -10.203125 C 20.890625 -11.046875 20.820312 -11.894531 20.75 -12.75 C 20.6875 -13.613281 20.582031 -14.40625 20.4375 -15.125 C 20.289062 -15.84375 20.070312 -16.394531 19.78125 -16.78125 C 19.5 -17.175781 19.097656 -17.316406 18.578125 -17.203125 C 18.210938 -17.128906 18.003906 -16.84375 17.953125 -16.34375 C 17.898438 -15.851562 17.929688 -15.21875 18.046875 -14.4375 C 18.171875 -13.65625 18.328125 -12.800781 18.515625 -11.875 C 18.710938 -10.945312 18.882812 -10.019531 19.03125 -9.09375 C 19.1875 -8.175781 19.226562 -7.328125 19.15625 -6.546875 C 19.113281 -5.785156 18.84375 -5.097656 18.34375 -4.484375 C 17.84375 -3.878906 17.113281 -3.484375 16.15625 -3.296875 Z M 16.15625 -3.296875 "/></g></g></g><g fill="#efb07d" fill-opacity="1"><g transform="translate(236.415675, 314.399444)"><g><path d="M 13.203125 -6.421875 C 12.222656 -5.941406 11.132812 -5.503906 9.9375 -5.109375 C 8.75 -4.710938 7.503906 -4.476562 6.203125 -4.40625 C 4.910156 -4.332031 3.601562 -4.519531 2.28125 -4.96875 C 0.96875 -5.425781 -0.304688 -6.265625 -1.546875 -7.484375 C -2.785156 -8.703125 -3.9375 -10.40625 -5 -12.59375 C -6.164062 -14.988281 -6.820312 -17.367188 -6.96875 -19.734375 C -7.113281 -22.097656 -6.644531 -24.269531 -5.5625 -26.25 C -4.488281 -28.226562 -2.695312 -29.820312 -0.1875 -31.03125 C 1.601562 -31.90625 3.144531 -32.460938 4.4375 -32.703125 C 5.726562 -32.953125 6.816406 -32.984375 7.703125 -32.796875 C 8.597656 -32.609375 9.316406 -32.273438 9.859375 -31.796875 C 10.398438 -31.328125 10.816406 -30.789062 11.109375 -30.1875 C 11.410156 -29.5625 11.539062 -28.878906 11.5 -28.140625 C 11.457031 -27.398438 11.171875 -26.703125 10.640625 -26.046875 C 10.117188 -25.398438 9.488281 -24.921875 8.75 -24.609375 C 8.019531 -24.296875 7.367188 -24.003906 6.796875 -23.734375 C 5.546875 -23.117188 4.675781 -22.414062 4.1875 -21.625 C 3.695312 -20.832031 3.523438 -19.914062 3.671875 -18.875 C 4.046875 -19.09375 4.460938 -19.316406 4.921875 -19.546875 C 5.390625 -19.773438 5.875 -20.015625 6.375 -20.265625 C 7.351562 -20.742188 8.300781 -21.179688 9.21875 -21.578125 C 10.132812 -21.984375 10.789062 -22.242188 11.1875 -22.359375 C 12.101562 -22.597656 12.898438 -22.570312 13.578125 -22.28125 C 14.253906 -22 14.742188 -21.546875 15.046875 -20.921875 C 15.335938 -20.328125 15.394531 -19.691406 15.21875 -19.015625 C 15.039062 -18.335938 14.539062 -17.675781 13.71875 -17.03125 C 13.414062 -16.8125 12.800781 -16.445312 11.875 -15.9375 C 10.945312 -15.4375 9.96875 -14.9375 8.9375 -14.4375 C 8.539062 -14.238281 8.144531 -14.050781 7.75 -13.875 C 7.363281 -13.707031 7.007812 -13.546875 6.6875 -13.390625 C 7.394531 -12.804688 8.1875 -12.472656 9.0625 -12.390625 C 9.945312 -12.304688 10.925781 -12.523438 12 -13.046875 C 12.414062 -13.253906 12.988281 -13.582031 13.71875 -14.03125 C 14.457031 -14.488281 15.234375 -14.789062 16.046875 -14.9375 C 17.367188 -15.125 18.3125 -14.640625 18.875 -13.484375 C 19.164062 -12.867188 19.234375 -12.191406 19.078125 -11.453125 C 18.929688 -10.710938 18.398438 -9.925781 17.484375 -9.09375 C 16.566406 -8.257812 15.140625 -7.367188 13.203125 -6.421875 Z M 13.203125 -6.421875 "/></g></g></g><g fill="#efb07d" fill-opacity="1"><g transform="translate(262.949516, 301.105944)"><g><path d="M 11.34375 -9.265625 C 9.925781 -8.078125 8.367188 -7.234375 6.671875 -6.734375 C 4.984375 -6.242188 3.242188 -6.09375 1.453125 -6.28125 C -0.328125 -6.476562 -2.035156 -7.003906 -3.671875 -7.859375 C -5.304688 -8.710938 -6.78125 -9.898438 -8.09375 -11.421875 C -9.34375 -12.878906 -10.226562 -14.476562 -10.75 -16.21875 C -11.28125 -17.957031 -11.46875 -19.71875 -11.3125 -21.5 C -11.164062 -23.28125 -10.6875 -24.976562 -9.875 -26.59375 C -9.0625 -28.21875 -7.910156 -29.640625 -6.421875 -30.859375 C -5.023438 -32.046875 -3.476562 -32.890625 -1.78125 -33.390625 C -0.0820312 -33.890625 1.648438 -34.046875 3.421875 -33.859375 C 5.191406 -33.679688 6.898438 -33.164062 8.546875 -32.3125 C 10.203125 -31.457031 11.679688 -30.269531 12.984375 -28.75 C 14.242188 -27.289062 15.128906 -25.691406 15.640625 -23.953125 C 16.160156 -22.210938 16.335938 -20.453125 16.171875 -18.671875 C 16.015625 -16.890625 15.523438 -15.1875 14.703125 -13.5625 C 13.878906 -11.945312 12.757812 -10.515625 11.34375 -9.265625 Z M 6.46875 -15.375 C 7.363281 -16.125 7.890625 -17.109375 8.046875 -18.328125 C 8.203125 -19.554688 7.800781 -20.726562 6.84375 -21.84375 C 5.894531 -23 4.804688 -23.625 3.578125 -23.71875 C 2.359375 -23.820312 1.300781 -23.5 0.40625 -22.75 C -0.507812 -22.007812 -1.035156 -21.03125 -1.171875 -19.8125 C -1.304688 -18.59375 -0.898438 -17.40625 0.046875 -16.25 C 0.984375 -15.113281 2.054688 -14.5 3.265625 -14.40625 C 4.484375 -14.3125 5.550781 -14.632812 6.46875 -15.375 Z M 6.46875 -15.375 "/></g></g></g></svg>